name rise35.5848peak51.9257fall54.8793.mot
datacolumns 19
datarows 33
range 20.21158900000000 20.26492100000000
endheader
time	ground_force1_vx	ground_force1_vy	ground_force1_vz	ground_force1_px	ground_force1_py	ground_force1_pz	ground_force2_vx	ground_force2_vy	ground_force2_vz	ground_force2_px	ground_force2_py	ground_force2_pz	ground_torque1_x	ground_torque1_y	ground_torque1_z	ground_torque2_x	ground_torque2_y	ground_torque2_z	
20.21158900000000	6.91681300000000	707.94090300000005	40.74693900000000	0.18187900000000	0.00000000000000	0.10288600000000	0.00000000000000	0.00000000000000	0.00000000000000	0.00000000000000	0.00000000000000	0.00000000000000	0.00000000000000	13.67529400000000	0.00000000000000	0.00000000000000	0.00000000000000	0.00000000000000	
20.21325400000000	6.42252000000000	708.92925700000001	40.72509500000000	0.18084500000000	0.00000000000000	0.10292000000000	0.00000000000000	0.00000000000000	0.00000000000000	0.00000000000000	0.00000000000000	0.00000000000000	0.00000000000000	13.71130300000000	0.00000000000000	0.00000000000000	0.00000000000000	0.00000000000000	
20.21491700000000	5.92041800000000	709.93165599999998	40.70580200000000	0.17980500000000	0.00000000000000	0.10295500000000	0.00000000000000	0.00000000000000	0.00000000000000	0.00000000000000	0.00000000000000	0.00000000000000	0.00000000000000	13.75045300000000	0.00000000000000	0.00000000000000	0.00000000000000	0.00000000000000	
20.21658100000000	5.41067400000000	710.94710399999997	40.68893300000000	0.17876000000000	0.00000000000000	0.10298900000000	0.00000000000000	0.00000000000000	0.00000000000000	0.00000000000000	0.00000000000000	0.00000000000000	0.00000000000000	13.79268600000000	0.00000000000000	0.00000000000000	0.00000000000000	0.00000000000000	
20.21824800000000	4.89347700000000	711.97471399999995	40.67436000000000	0.17771200000000	0.00000000000000	0.10302300000000	0.00000000000000	0.00000000000000	0.00000000000000	0.00000000000000	0.00000000000000	0.00000000000000	0.00000000000000	13.83794400000000	0.00000000000000	0.00000000000000	0.00000000000000	0.00000000000000	
20.21992200000000	4.36903900000000	713.01370899999995	40.66196100000000	0.17666100000000	0.00000000000000	0.10305600000000	0.00000000000000	0.00000000000000	0.00000000000000	0.00000000000000	0.00000000000000	0.00000000000000	0.00000000000000	13.88616600000000	0.00000000000000	0.00000000000000	0.00000000000000	0.00000000000000	
20.22158900000000	3.83759200000000	714.06342199999995	40.65161900000000	0.17560700000000	0.00000000000000	0.10308900000000	0.00000000000000	0.00000000000000	0.00000000000000	0.00000000000000	0.00000000000000	0.00000000000000	0.00000000000000	13.93728600000000	0.00000000000000	0.00000000000000	0.00000000000000	0.00000000000000	
20.22325500000000	3.29938700000000	715.12329499999998	40.64322300000000	0.17455200000000	0.00000000000000	0.10312100000000	0.00000000000000	0.00000000000000	0.00000000000000	0.00000000000000	0.00000000000000	0.00000000000000	0.00000000000000	13.99123600000000	0.00000000000000	0.00000000000000	0.00000000000000	0.00000000000000	
20.22491700000000	2.75469500000000	716.19287999999995	40.63666400000000	0.17349700000000	0.00000000000000	0.10315300000000	0.00000000000000	0.00000000000000	0.00000000000000	0.00000000000000	0.00000000000000	0.00000000000000	0.00000000000000	14.04794600000000	0.00000000000000	0.00000000000000	0.00000000000000	0.00000000000000	
20.22658400000000	2.20380000000000	717.27183300000002	40.63184300000000	0.17244300000000	0.00000000000000	0.10318400000000	0.00000000000000	0.00000000000000	0.00000000000000	0.00000000000000	0.00000000000000	0.00000000000000	0.00000000000000	14.10734100000000	0.00000000000000	0.00000000000000	0.00000000000000	0.00000000000000	
20.22824800000000	1.64700800000000	718.35991700000000	40.62866500000000	0.17138900000000	0.00000000000000	0.10321500000000	0.00000000000000	0.00000000000000	0.00000000000000	0.00000000000000	0.00000000000000	0.00000000000000	0.00000000000000	14.16934300000000	0.00000000000000	0.00000000000000	0.00000000000000	0.00000000000000	
20.22991900000000	1.08463400000000	719.45699600000000	40.62704100000000	0.17033700000000	0.00000000000000	0.10324400000000	0.00000000000000	0.00000000000000	0.00000000000000	0.00000000000000	0.00000000000000	0.00000000000000	0.00000000000000	14.23387200000000	0.00000000000000	0.00000000000000	0.00000000000000	0.00000000000000	
20.23158600000000	0.51701000000000	720.56303200000002	40.62689200000000	0.16928800000000	0.00000000000000	0.10327300000000	0.00000000000000	0.00000000000000	0.00000000000000	0.00000000000000	0.00000000000000	0.00000000000000	0.00000000000000	14.30084200000000	0.00000000000000	0.00000000000000	0.00000000000000	0.00000000000000	
20.23325600000000	-0.05552100000000	721.67808100000002	40.62814400000000	0.16824200000000	0.00000000000000	0.10330100000000	0.00000000000000	0.00000000000000	0.00000000000000	0.00000000000000	0.00000000000000	0.00000000000000	0.00000000000000	14.37016800000000	0.00000000000000	0.00000000000000	0.00000000000000	0.00000000000000	
20.23491800000000	-0.63260500000000	722.80228999999997	40.63073300000000	0.16720000000000	0.00000000000000	0.10332700000000	0.00000000000000	0.00000000000000	0.00000000000000	0.00000000000000	0.00000000000000	0.00000000000000	0.00000000000000	14.44175800000000	0.00000000000000	0.00000000000000	0.00000000000000	0.00000000000000	
20.23658400000000	-1.21387800000000	723.93588799999998	40.63460300000000	0.16616200000000	0.00000000000000	0.10335300000000	0.00000000000000	0.00000000000000	0.00000000000000	0.00000000000000	0.00000000000000	0.00000000000000	0.00000000000000	14.51551800000000	0.00000000000000	0.00000000000000	0.00000000000000	0.00000000000000	
20.23825000000000	-1.79896700000000	725.07918700000005	40.63970800000000	0.16513000000000	0.00000000000000	0.10337700000000	0.00000000000000	0.00000000000000	0.00000000000000	0.00000000000000	0.00000000000000	0.00000000000000	0.00000000000000	14.59135100000000	0.00000000000000	0.00000000000000	0.00000000000000	0.00000000000000	
20.23991800000000	-2.38749100000000	726.23256900000001	40.64601100000000	0.16410300000000	0.00000000000000	0.10340100000000	0.00000000000000	0.00000000000000	0.00000000000000	0.00000000000000	0.00000000000000	0.00000000000000	0.00000000000000	14.66915700000000	0.00000000000000	0.00000000000000	0.00000000000000	0.00000000000000	
20.24158900000000	-2.97906500000000	727.39648399999999	40.65348500000000	0.16308100000000	0.00000000000000	0.10342300000000	0.00000000000000	0.00000000000000	0.00000000000000	0.00000000000000	0.00000000000000	0.00000000000000	0.00000000000000	14.74883300000000	0.00000000000000	0.00000000000000	0.00000000000000	0.00000000000000	
20.24325500000000	-3.57329800000000	728.57144100000005	40.66211400000000	0.16206600000000	0.00000000000000	0.10344500000000	0.00000000000000	0.00000000000000	0.00000000000000	0.00000000000000	0.00000000000000	0.00000000000000	0.00000000000000	14.83027300000000	0.00000000000000	0.00000000000000	0.00000000000000	0.00000000000000	
20.24491600000000	-4.16979400000000	729.75800200000003	40.67189400000000	0.16105800000000	0.00000000000000	0.10346500000000	0.00000000000000	0.00000000000000	0.00000000000000	0.00000000000000	0.00000000000000	0.00000000000000	0.00000000000000	14.91336700000000	0.00000000000000	0.00000000000000	0.00000000000000	0.00000000000000	
20.24658100000000	-4.76815500000000	730.95677599999999	40.68283000000000	0.16005600000000	0.00000000000000	0.10348400000000	0.00000000000000	0.00000000000000	0.00000000000000	0.00000000000000	0.00000000000000	0.00000000000000	0.00000000000000	14.99800400000000	0.00000000000000	0.00000000000000	0.00000000000000	0.00000000000000	
20.24825400000000	-5.36798200000000	732.16840500000001	40.69494300000000	0.15906200000000	0.00000000000000	0.10350200000000	0.00000000000000	0.00000000000000	0.00000000000000	0.00000000000000	0.00000000000000	0.00000000000000	0.00000000000000	15.08407100000000	0.00000000000000	0.00000000000000	0.00000000000000	0.00000000000000	
20.24991500000000	-5.96887400000000	733.39356499999997	40.70826200000000	0.15807500000000	0.00000000000000	0.10351800000000	0.00000000000000	0.00000000000000	0.00000000000000	0.00000000000000	0.00000000000000	0.00000000000000	0.00000000000000	15.17144900000000	0.00000000000000	0.00000000000000	0.00000000000000	0.00000000000000	
20.25158300000000	-6.57043100000000	734.63295100000005	40.72283200000000	0.15709500000000	0.00000000000000	0.10353400000000	0.00000000000000	0.00000000000000	0.00000000000000	0.00000000000000	0.00000000000000	0.00000000000000	0.00000000000000	15.26002100000000	0.00000000000000	0.00000000000000	0.00000000000000	0.00000000000000	
20.25325500000000	-7.17225600000000	735.88726899999995	40.73870700000000	0.15612400000000	0.00000000000000	0.10354800000000	0.00000000000000	0.00000000000000	0.00000000000000	0.00000000000000	0.00000000000000	0.00000000000000	0.00000000000000	15.34966500000000	0.00000000000000	0.00000000000000	0.00000000000000	0.00000000000000	
20.25491700000000	-7.77395200000000	737.15723100000002	40.75595800000000	0.15515900000000	0.00000000000000	0.10356200000000	0.00000000000000	0.00000000000000	0.00000000000000	0.00000000000000	0.00000000000000	0.00000000000000	0.00000000000000	15.44025900000000	0.00000000000000	0.00000000000000	0.00000000000000	0.00000000000000	
20.25658800000000	-8.37512700000000	738.44354399999997	40.77466600000000	0.15420300000000	0.00000000000000	0.10357400000000	0.00000000000000	0.00000000000000	0.00000000000000	0.00000000000000	0.00000000000000	0.00000000000000	0.00000000000000	15.53167900000000	0.00000000000000	0.00000000000000	0.00000000000000	0.00000000000000	
20.25825300000000	-8.97539400000000	739.74690199999998	40.79492700000000	0.15325400000000	0.00000000000000	0.10358600000000	0.00000000000000	0.00000000000000	0.00000000000000	0.00000000000000	0.00000000000000	0.00000000000000	0.00000000000000	15.62379900000000	0.00000000000000	0.00000000000000	0.00000000000000	0.00000000000000	
20.25991700000000	-9.57436800000000	741.06797800000004	40.81684900000000	0.15231400000000	0.00000000000000	0.10359600000000	0.00000000000000	0.00000000000000	0.00000000000000	0.00000000000000	0.00000000000000	0.00000000000000	0.00000000000000	15.71649100000000	0.00000000000000	0.00000000000000	0.00000000000000	0.00000000000000	
20.26158200000000	-10.17167300000000	742.40741200000002	40.84055200000000	0.15138000000000	0.00000000000000	0.10360600000000	0.00000000000000	0.00000000000000	0.00000000000000	0.00000000000000	0.00000000000000	0.00000000000000	0.00000000000000	15.80962900000000	0.00000000000000	0.00000000000000	0.00000000000000	0.00000000000000	
20.26324700000000	-10.76694000000000	743.76580999999999	40.86617100000000	0.15045400000000	0.00000000000000	0.10361500000000	0.00000000000000	0.00000000000000	0.00000000000000	0.00000000000000	0.00000000000000	0.00000000000000	0.00000000000000	15.90308400000000	0.00000000000000	0.00000000000000	0.00000000000000	0.00000000000000	
20.26492100000000	-11.35980600000000	745.14372800000001	40.89385100000000	0.14953600000000	0.00000000000000	0.10362300000000	0.00000000000000	0.00000000000000	0.00000000000000	0.00000000000000	0.00000000000000	0.00000000000000	0.00000000000000	15.99672500000000	0.00000000000000	0.00000000000000	0.00000000000000	0.00000000000000	
